<svg width="146" height="39" viewBox="0 0 146 39" fill="none" xmlns="http://www.w3.org/2000/svg">
<mask id="mask0_24_427" style="mask-type:luminance" maskUnits="userSpaceOnUse" x="0" y="3" width="13" height="34">
<path d="M13 3.04883H0V36.0488H13V3.04883Z" fill="white"/>
</mask>
<g mask="url(#mask0_24_427)">
<path d="M0 9.54883C0 5.95898 2.91015 3.04883 6.5 3.04883C10.0899 3.04883 13 5.95898 13 9.54883V29.5488C13 33.1387 10.0899 36.0488 6.5 36.0488C2.91015 36.0488 0 33.1387 0 29.5488V9.54883Z" fill="#00C2CB"/>
<path d="M11 9.55664C11 12.0419 8.98528 14.0566 6.5 14.0566C4.01472 14.0566 2 12.0419 2 9.55664C2 7.07136 4.01472 5.05664 6.5 5.05664C8.98528 5.05664 11 7.07136 11 9.55664Z" fill="white"/>
</g>
<path d="M21.7422 7.1582V0H23.1484L26.0781 4.78027V0H27.4209V7.1582H25.9707L23.085 2.49023V7.1582H21.7422ZM28.6602 7.1582V0H30.1055V7.1582H28.6602ZM33.0635 7.1582L30.5049 0H32.0723L33.8838 5.29785L35.6367 0H37.1699L34.6064 7.1582H33.0635ZM37.6572 7.1582V0H42.9648V1.21094H39.1025V2.79785H42.6963V4.00391H39.1025V5.95215H43.1016V7.1582H37.6572ZM44.1162 7.1582V0.0585938H45.5615V5.95215H49.1553V7.1582H44.1162ZM56.3955 7.1582H54.8232L54.1982 5.53223H51.3369L50.7461 7.1582H49.2129L52.001 0H53.5293L56.3955 7.1582ZM53.7344 4.32617L52.748 1.66992L51.7812 4.32617H53.7344Z" fill="#00C2CB"/>
<path d="M43.9844 36.1582H38.9531L36.9531 30.9551H27.7969L25.9062 36.1582H21L29.9219 13.252H34.8125L43.9844 36.1582ZM35.4688 27.0957L32.3125 18.5957L29.2188 27.0957H35.4688ZM56.7188 36.1582H52.3281V19.6113C50.724 21.1113 48.8333 22.2207 46.6562 22.9395V18.9551C47.8021 18.5801 49.0469 17.8717 50.3906 16.8301C51.7344 15.778 52.6562 14.554 53.1562 13.1582H56.7188V36.1582Z" fill="#00C2CB"/>
<path d="M70 13.5488C70 11.3397 71.7909 9.54883 74 9.54883H142C144.209 9.54883 146 11.3397 146 13.5488V25.5488C146 27.758 144.209 29.5488 142 29.5488H74C71.7909 29.5488 70 27.758 70 25.5488V13.5488Z" fill="#2F0059"/>
<path d="M77.9824 23.5488L81.2812 14.959H82.5059L86.0215 23.5488H84.7266L83.7246 20.9473H80.1328L79.1895 23.5488H77.9824ZM80.4609 20.0215H83.373L82.4766 17.6426C82.2031 16.9199 82 16.3262 81.8672 15.8613C81.7578 16.4121 81.6035 16.959 81.4043 17.502L80.4609 20.0215ZM93.0586 20.5371L94.1953 20.8242C93.957 21.7578 93.5273 22.4707 92.9062 22.9629C92.2891 23.4512 91.5332 23.6953 90.6387 23.6953C89.7129 23.6953 88.959 23.5078 88.377 23.1328C87.7988 22.7539 87.3574 22.207 87.0527 21.4922C86.752 20.7773 86.6016 20.0098 86.6016 19.1895C86.6016 18.2949 86.7715 17.5156 87.1113 16.8516C87.4551 16.1836 87.9414 15.6777 88.5703 15.334C89.2031 14.9863 89.8984 14.8125 90.6562 14.8125C91.5156 14.8125 92.2383 15.0312 92.8242 15.4688C93.4102 15.9062 93.8184 16.5215 94.0488 17.3145L92.9297 17.5781C92.7305 16.9531 92.4414 16.498 92.0625 16.2129C91.6836 15.9277 91.207 15.7852 90.6328 15.7852C89.9727 15.7852 89.4199 15.9434 88.9746 16.2598C88.5332 16.5762 88.2227 17.002 88.043 17.5371C87.8633 18.0684 87.7734 18.6172 87.7734 19.1836C87.7734 19.9141 87.8789 20.5527 88.0898 21.0996C88.3047 21.6426 88.6367 22.0488 89.0859 22.3184C89.5352 22.5879 90.0215 22.7227 90.5449 22.7227C91.1816 22.7227 91.7207 22.5391 92.1621 22.1719C92.6035 21.8047 92.9023 21.2598 93.0586 20.5371ZM94.6582 23.5488L97.957 14.959H99.1816L102.697 23.5488H101.402L100.4 20.9473H96.8086L95.8652 23.5488H94.6582ZM97.1367 20.0215H100.049L99.1523 17.6426C98.8789 16.9199 98.6758 16.3262 98.543 15.8613C98.4336 16.4121 98.2793 16.959 98.0801 17.502L97.1367 20.0215ZM103.605 23.5488V14.959H106.564C107.232 14.959 107.742 15 108.094 15.082C108.586 15.1953 109.006 15.4004 109.354 15.6973C109.807 16.0801 110.145 16.5703 110.367 17.168C110.594 17.7617 110.707 18.4414 110.707 19.207C110.707 19.8594 110.631 20.4375 110.479 20.9414C110.326 21.4453 110.131 21.8633 109.893 22.1953C109.654 22.5234 109.393 22.7832 109.107 22.9746C108.826 23.1621 108.484 23.3047 108.082 23.4023C107.684 23.5 107.225 23.5488 106.705 23.5488H103.605ZM104.742 22.5352H106.576C107.143 22.5352 107.586 22.4824 107.906 22.377C108.23 22.2715 108.488 22.123 108.68 21.9316C108.949 21.6621 109.158 21.3008 109.307 20.8477C109.459 20.3906 109.535 19.8379 109.535 19.1895C109.535 18.291 109.387 17.6016 109.09 17.1211C108.797 16.6367 108.439 16.3125 108.018 16.1484C107.713 16.0312 107.223 15.9727 106.547 15.9727H104.742V22.5352ZM112.301 23.5488V14.959H118.512V15.9727H113.438V18.6035H118.189V19.6113H113.438V22.5352H118.711V23.5488H112.301ZM120.246 23.5488V14.959H121.957L123.99 21.041C124.178 21.6074 124.314 22.0312 124.4 22.3125C124.498 22 124.65 21.541 124.857 20.9355L126.914 14.959H128.443V23.5488H127.348V16.3594L124.852 23.5488H123.826L121.342 16.2363V23.5488H120.246ZM130.471 23.5488V14.959H131.607V23.5488H130.471ZM132.674 23.5488L135.973 14.959H137.197L140.713 23.5488H139.418L138.416 20.9473H134.824L133.881 23.5488H132.674ZM135.152 20.0215H138.064L137.168 17.6426C136.895 16.9199 136.691 16.3262 136.559 15.8613C136.449 16.4121 136.295 16.959 136.096 17.502L135.152 20.0215Z" fill="white"/>
</svg>
